<svg id="svg" version="1.1" xmlns="http://www.w3.org/2000/svg" xmlns:xlink="http://www.w3.org/1999/xlink" width="400" height="400" viewBox="0, 0, 400,400"><g id="svgg"><path id="path0" d="M224.800 48.487 C 224.800 48.646,224.554 48.680,224.253 48.565 C 223.922 48.438,223.591 48.721,223.417 49.277 L 223.129 50.200 222.804 49.200 C 222.502 48.268,222.477 48.260,222.440 49.076 C 222.397 50.014,221.882 50.549,221.444 50.111 C 220.441 49.107,220.073 49.838,221.052 50.890 C 221.684 51.569,221.944 51.976,221.631 51.795 C 220.705 51.262,218.648 51.300,219.383 51.837 C 219.912 52.224,219.909 52.362,219.361 53.037 C 219.020 53.457,218.872 53.547,219.032 53.238 C 219.229 52.860,219.167 52.773,218.842 52.974 C 218.490 53.191,218.479 53.413,218.800 53.800 C 219.104 54.166,219.110 54.409,218.819 54.588 C 218.589 54.731,218.400 54.691,218.400 54.500 C 218.400 54.309,218.120 53.804,217.778 53.376 C 217.177 52.627,217.170 52.630,217.579 53.476 C 217.886 54.110,217.875 54.430,217.539 54.638 C 217.270 54.804,217.184 54.749,217.334 54.507 C 217.475 54.278,217.313 53.860,216.973 53.578 C 216.464 53.155,216.376 53.165,216.477 53.632 C 216.545 53.945,216.362 54.151,216.070 54.090 C 215.779 54.030,215.656 54.168,215.798 54.397 C 215.939 54.626,216.223 54.709,216.428 54.583 C 216.632 54.456,216.800 54.628,216.800 54.964 C 216.800 55.343,216.572 55.487,216.200 55.345 C 215.870 55.218,215.600 55.314,215.600 55.557 C 215.600 55.801,215.915 56.014,216.300 56.032 C 216.722 56.051,216.801 56.144,216.498 56.266 C 216.221 56.377,216.089 56.621,216.204 56.807 C 216.319 56.993,216.230 57.258,216.007 57.396 C 215.783 57.534,215.587 57.412,215.572 57.124 C 215.556 56.836,215.396 56.960,215.214 57.400 C 214.728 58.580,214.715 122.125,215.201 123.403 C 215.485 124.150,215.472 124.368,215.156 124.173 C 214.560 123.804,215.148 125.695,215.754 126.094 C 215.999 126.256,216.073 126.391,215.918 126.394 C 215.637 126.400,217.461 128.359,217.794 128.408 C 218.980 128.583,219.910 130.276,219.327 131.200 C 218.980 131.750,218.924 131.987,219.202 131.726 C 219.594 131.359,219.832 131.375,220.254 131.797 C 220.938 132.480,220.965 132.942,220.300 132.559 C 220.010 132.392,219.940 132.424,220.133 132.636 C 220.317 132.836,220.677 133.004,220.933 133.009 C 221.190 133.014,221.351 133.374,221.290 133.809 C 221.187 134.550,221.208 134.554,221.622 133.879 C 221.945 133.351,221.942 133.013,221.612 132.615 C 221.273 132.207,221.290 131.997,221.681 131.771 C 221.966 131.607,222.067 131.619,221.903 131.799 C 221.740 131.979,221.807 132.367,222.051 132.661 C 222.295 132.955,222.397 133.567,222.279 134.021 C 222.108 134.673,222.174 134.753,222.596 134.403 C 222.970 134.093,223.207 134.088,223.392 134.387 C 223.537 134.621,223.824 134.709,224.030 134.581 C 224.237 134.454,224.514 134.631,224.646 134.975 C 224.778 135.319,225.057 135.600,225.266 135.600 C 225.476 135.600,225.520 135.375,225.365 135.100 C 225.139 134.700,225.190 134.700,225.621 135.100 C 226.226 135.661,226.959 135.781,226.641 135.267 C 226.528 135.083,226.697 134.933,227.018 134.933 C 227.338 134.933,227.600 135.077,227.600 135.254 C 227.600 135.430,252.710 135.579,283.400 135.585 C 324.249 135.593,339.200 135.476,339.200 135.149 C 339.200 134.830,339.361 134.836,339.764 135.170 C 340.169 135.507,340.405 135.515,340.600 135.200 C 340.792 134.890,341.060 134.914,341.512 135.281 C 341.993 135.670,342.078 135.675,341.853 135.300 C 341.667 134.990,341.789 134.781,342.176 134.750 C 342.519 134.722,343.025 134.675,343.300 134.645 C 343.575 134.614,343.794 134.110,343.787 133.525 C 343.779 132.939,343.914 132.547,344.087 132.653 C 344.259 132.760,344.403 132.612,344.406 132.324 C 344.410 132.004,344.527 131.956,344.706 132.200 C 344.868 132.420,345.360 132.632,345.800 132.670 L 346.600 132.741 345.800 132.120 C 345.015 131.511,345.017 131.504,345.923 131.719 C 346.730 131.910,346.780 131.856,346.323 131.294 C 345.871 130.738,345.901 130.688,346.545 130.930 C 347.122 131.146,347.233 131.063,347.040 130.560 C 346.864 130.101,346.962 129.977,347.375 130.135 C 347.765 130.285,347.886 130.169,347.739 129.785 C 347.599 129.420,347.897 129.067,348.559 128.815 C 349.175 128.581,349.600 128.110,349.600 127.662 C 349.600 127.129,349.867 126.918,350.500 126.952 C 351.167 126.988,351.367 126.808,351.273 126.260 C 351.201 125.840,351.321 125.628,351.551 125.769 C 351.822 125.937,351.961 114.815,351.974 92.030 L 351.993 58.041 351.160 57.457 C 350.385 56.914,350.378 56.863,351.058 56.732 C 351.738 56.601,351.727 56.527,350.910 55.710 C 350.413 55.213,350.200 54.724,350.421 54.587 C 350.637 54.454,350.704 54.168,350.571 53.953 C 350.419 53.706,350.120 53.735,349.764 54.030 C 349.318 54.400,349.200 54.362,349.200 53.849 C 349.200 53.492,348.919 53.200,348.576 53.200 C 348.209 53.200,348.057 53.406,348.206 53.700 C 348.345 53.975,348.176 53.851,347.830 53.424 C 347.483 52.996,347.197 52.366,347.194 52.024 C 347.190 51.661,347.065 51.567,346.894 51.800 C 346.450 52.405,345.501 52.497,345.694 51.917 C 345.788 51.637,345.445 51.078,344.932 50.675 C 344.419 50.272,344.000 49.666,344.000 49.328 C 344.000 48.947,343.773 48.802,343.400 48.945 C 343.070 49.071,342.800 48.981,342.800 48.745 C 342.800 48.508,342.548 48.411,342.239 48.530 C 341.931 48.648,341.588 48.655,341.477 48.544 C 341.158 48.225,224.800 48.168,224.800 48.487 M345.031 51.733 C 345.156 52.580,345.078 52.570,344.227 51.630 C 343.565 50.899,343.565 50.866,344.232 50.964 C 344.618 51.020,344.978 51.367,345.031 51.733 M57.400 265.209 C 56.960 265.393,56.836 265.556,57.124 265.572 C 57.412 265.587,57.534 265.783,57.396 266.007 C 57.258 266.230,56.993 266.319,56.807 266.204 C 56.621 266.089,56.377 266.221,56.266 266.498 C 56.144 266.801,56.051 266.722,56.032 266.300 C 56.014 265.915,55.801 265.600,55.557 265.600 C 55.314 265.600,55.218 265.870,55.345 266.200 C 55.487 266.572,55.343 266.800,54.964 266.800 C 54.628 266.800,54.456 266.632,54.583 266.428 C 54.709 266.223,54.626 265.939,54.397 265.798 C 54.168 265.656,54.030 265.779,54.090 266.070 C 54.151 266.362,53.945 266.545,53.632 266.477 C 53.165 266.376,53.155 266.464,53.578 266.973 C 53.860 267.313,54.278 267.475,54.507 267.334 C 54.749 267.184,54.804 267.270,54.638 267.539 C 54.430 267.875,54.110 267.886,53.476 267.579 C 52.630 267.170,52.627 267.177,53.376 267.778 C 53.804 268.120,54.309 268.400,54.500 268.400 C 54.691 268.400,54.731 268.589,54.588 268.819 C 54.409 269.110,54.166 269.104,53.800 268.800 C 53.413 268.479,53.191 268.490,52.974 268.842 C 52.773 269.167,52.860 269.229,53.238 269.032 C 53.547 268.872,53.457 269.020,53.037 269.361 C 52.362 269.909,52.224 269.912,51.837 269.383 C 51.300 268.648,51.262 270.705,51.795 271.631 C 51.976 271.944,51.569 271.684,50.890 271.052 C 49.791 270.030,49.352 270.248,50.100 271.444 C 50.463 272.024,50.070 272.390,49.033 272.440 C 48.303 272.475,48.323 272.520,49.200 272.804 L 50.200 273.129 49.277 273.417 C 48.721 273.591,48.438 273.922,48.565 274.253 C 48.680 274.554,48.646 274.800,48.487 274.800 C 48.155 274.800,48.191 341.125,48.524 341.457 C 48.645 341.579,48.648 341.931,48.530 342.239 C 48.411 342.548,48.508 342.800,48.745 342.800 C 48.981 342.800,49.071 343.070,48.945 343.400 C 48.802 343.773,48.947 344.000,49.328 344.000 C 49.666 344.000,50.272 344.419,50.675 344.932 C 51.078 345.445,51.637 345.788,51.917 345.694 C 52.497 345.501,52.405 346.450,51.800 346.894 C 51.567 347.065,51.661 347.190,52.024 347.194 C 52.366 347.197,52.996 347.483,53.424 347.830 C 53.851 348.176,53.975 348.345,53.700 348.206 C 53.406 348.057,53.200 348.209,53.200 348.576 C 53.200 348.919,53.492 349.200,53.849 349.200 C 54.362 349.200,54.400 349.318,54.030 349.764 C 53.735 350.120,53.706 350.419,53.953 350.571 C 54.168 350.704,54.464 350.619,54.611 350.383 C 54.782 350.105,55.061 350.204,55.395 350.661 C 55.800 351.214,56.036 351.268,56.473 350.905 C 56.913 350.540,57.137 350.608,57.519 351.219 C 57.997 351.985,58.976 351.997,117.017 351.985 C 157.450 351.976,175.949 351.842,175.775 351.559 C 175.627 351.320,175.830 351.200,176.260 351.273 C 176.808 351.367,176.988 351.167,176.952 350.500 C 176.918 349.867,177.129 349.600,177.662 349.600 C 178.110 349.600,178.581 349.175,178.815 348.559 C 179.067 347.897,179.420 347.599,179.785 347.739 C 180.169 347.886,180.285 347.765,180.135 347.375 C 179.977 346.962,180.101 346.864,180.560 347.040 C 181.063 347.233,181.146 347.122,180.930 346.545 C 180.688 345.901,180.738 345.871,181.294 346.323 C 181.856 346.780,181.910 346.730,181.719 345.923 C 181.504 345.017,181.511 345.015,182.120 345.800 L 182.741 346.600 182.670 345.800 C 182.632 345.360,182.420 344.868,182.200 344.706 C 181.956 344.527,182.004 344.410,182.324 344.406 C 182.612 344.403,182.760 344.259,182.653 344.087 C 182.547 343.914,182.939 343.779,183.525 343.787 C 184.110 343.794,184.614 343.575,184.645 343.300 C 184.675 343.025,184.722 342.519,184.750 342.176 C 184.781 341.789,184.990 341.667,185.300 341.853 C 185.675 342.078,185.670 341.993,185.281 341.512 C 184.914 341.060,184.890 340.792,185.200 340.600 C 185.515 340.405,185.507 340.169,185.170 339.764 C 184.839 339.364,184.832 339.200,185.147 339.200 C 185.469 339.200,185.587 330.744,185.574 308.400 C 185.564 291.460,185.416 277.600,185.244 277.600 C 185.073 277.600,184.933 277.338,184.933 277.018 C 184.933 276.697,185.083 276.528,185.267 276.641 C 185.781 276.959,185.661 276.226,185.100 275.621 C 184.700 275.190,184.700 275.139,185.100 275.365 C 185.375 275.520,185.600 275.476,185.600 275.266 C 185.600 275.057,185.319 274.778,184.975 274.646 C 184.631 274.514,184.454 274.237,184.581 274.030 C 184.709 273.824,184.621 273.537,184.387 273.392 C 184.088 273.207,184.093 272.970,184.403 272.596 C 184.753 272.174,184.673 272.108,184.021 272.279 C 183.567 272.397,182.955 272.295,182.661 272.051 C 182.367 271.807,181.979 271.740,181.799 271.903 C 181.619 272.067,181.607 271.966,181.771 271.681 C 181.997 271.290,182.207 271.273,182.615 271.612 C 183.013 271.942,183.351 271.945,183.879 271.622 C 184.554 271.208,184.550 271.187,183.809 271.290 C 183.374 271.351,183.014 271.190,183.009 270.933 C 183.004 270.677,182.836 270.317,182.636 270.133 C 182.424 269.940,182.392 270.010,182.559 270.300 C 182.942 270.965,182.480 270.938,181.797 270.254 C 181.375 269.832,181.359 269.594,181.726 269.202 C 181.987 268.924,181.750 268.980,181.200 269.327 C 180.276 269.910,178.583 268.980,178.408 267.794 C 178.359 267.461,176.400 265.637,176.394 265.918 C 176.391 266.073,176.256 265.999,176.094 265.754 C 175.695 265.148,173.804 264.560,174.173 265.156 C 174.369 265.473,174.149 265.485,173.398 265.199 C 172.101 264.706,58.578 264.716,57.400 265.209 M51.773 344.370 C 52.435 345.101,52.435 345.134,51.768 345.036 C 51.382 344.980,51.022 344.633,50.969 344.267 C 50.844 343.420,50.922 343.430,51.773 344.370 " stroke="none" fill="#fcac5c" fill-rule="evenodd"></path><path id="path1" d="M53.200 48.428 C 53.200 48.659,53.008 48.729,52.773 48.583 C 52.539 48.438,52.383 48.563,52.427 48.860 C 52.759 51.098,51.098 52.759,48.860 52.427 C 48.563 52.383,48.438 52.539,48.583 52.773 C 48.729 53.008,48.658 53.200,48.427 53.200 C 48.135 53.200,48.005 80.176,48.002 141.800 C 47.997 221.887,48.057 230.400,48.622 230.400 C 48.966 230.400,49.136 230.580,49.000 230.800 C 48.851 231.041,49.379 231.200,50.326 231.200 C 51.929 231.200,52.405 231.877,52.574 234.400 C 52.598 234.753,52.983 234.987,53.507 234.968 C 53.998 234.951,54.400 235.086,54.400 235.268 C 54.400 235.450,82.390 235.596,116.600 235.592 C 159.747 235.588,178.800 235.457,178.800 235.166 C 178.800 234.933,179.144 234.855,179.576 234.992 C 180.571 235.308,181.303 234.026,181.128 232.275 C 181.006 231.060,181.060 231.006,182.275 231.128 C 184.026 231.303,185.308 230.571,184.992 229.576 C 184.855 229.143,184.933 228.800,185.168 228.800 C 185.462 228.800,185.591 202.458,185.595 141.600 C 185.597 93.640,185.450 54.400,185.268 54.400 C 185.086 54.400,184.951 53.998,184.968 53.507 C 184.987 52.983,184.753 52.598,184.400 52.574 C 181.877 52.405,181.200 51.929,181.200 50.326 C 181.200 49.379,181.041 48.851,180.800 49.000 C 180.580 49.136,180.400 48.966,180.400 48.621 C 180.400 48.056,174.243 47.996,116.800 48.002 C 72.769 48.007,53.200 48.138,53.200 48.428 M220.000 48.400 C 220.000 48.646,219.792 48.719,219.538 48.562 C 219.265 48.393,219.184 48.451,219.341 48.704 C 219.486 48.939,219.379 49.212,219.102 49.311 C 218.826 49.410,218.740 49.640,218.911 49.823 C 219.082 50.006,219.595 49.782,220.051 49.326 C 220.599 48.778,220.731 48.405,220.440 48.225 C 220.198 48.075,220.000 48.154,220.000 48.400 M221.200 48.408 C 221.200 48.650,221.647 48.708,222.300 48.551 C 223.870 48.175,223.923 48.000,222.467 48.000 C 221.770 48.000,221.200 48.183,221.200 48.408 M345.708 48.500 C 345.804 48.775,346.204 48.941,346.596 48.870 C 347.099 48.778,347.239 48.922,347.072 49.357 C 346.846 49.945,347.449 50.684,347.838 50.296 C 348.316 49.817,347.160 48.000,346.377 48.000 C 345.875 48.000,345.604 48.203,345.708 48.500 M347.600 52.009 C 347.600 52.173,348.005 52.415,348.500 52.548 C 349.750 52.883,350.083 52.858,349.830 52.448 C 349.551 51.997,347.600 51.613,347.600 52.009 M216.800 52.600 C 216.179 53.349,216.690 53.349,218.000 52.600 C 218.942 52.062,218.951 52.028,218.149 52.014 C 217.681 52.006,217.074 52.270,216.800 52.600 M215.039 52.738 C 214.900 52.961,214.982 53.265,215.220 53.412 C 215.835 53.793,216.232 53.272,215.718 52.758 C 215.431 52.471,215.207 52.464,215.039 52.738 M351.026 52.757 C 350.876 53.001,350.954 53.200,351.200 53.200 C 351.446 53.200,351.536 53.380,351.400 53.600 C 351.264 53.820,351.343 54.000,351.576 54.000 C 352.086 54.000,352.110 53.592,351.644 52.857 C 351.404 52.479,351.217 52.449,351.026 52.757 M214.520 60.400 C 214.520 61.610,214.595 62.105,214.687 61.500 C 214.778 60.895,214.778 59.905,214.687 59.300 C 214.595 58.695,214.520 59.190,214.520 60.400 M214.520 122.800 C 214.520 124.010,214.595 124.505,214.687 123.900 C 214.778 123.295,214.778 122.305,214.687 121.700 C 214.595 121.095,214.520 121.590,214.520 122.800 M214.942 129.795 C 214.974 130.343,215.245 130.885,215.545 131.000 C 215.934 131.149,216.006 131.008,215.797 130.505 C 215.636 130.117,215.496 129.575,215.486 129.300 C 215.475 129.025,215.336 128.800,215.176 128.800 C 215.016 128.800,214.911 129.248,214.942 129.795 M350.970 129.877 C 351.029 130.275,351.239 130.555,351.438 130.500 C 351.960 130.356,351.883 129.494,351.332 129.311 C 351.068 129.223,350.910 129.470,350.970 129.877 M347.304 132.619 C 346.989 132.961,346.953 133.248,347.207 133.404 C 347.426 133.540,347.717 133.362,347.852 133.008 C 348.183 132.147,347.914 131.957,347.304 132.619 M219.066 132.989 C 218.857 133.522,218.957 133.925,219.372 134.229 C 219.711 134.477,219.870 134.796,219.727 134.940 C 219.584 135.083,219.677 135.200,219.933 135.200 C 220.490 135.200,220.541 134.708,220.039 134.180 C 219.840 133.971,219.610 133.440,219.527 133.000 C 219.378 132.207,219.374 132.207,219.066 132.989 M346.584 134.427 C 346.439 134.661,346.416 134.949,346.533 135.067 C 346.820 135.353,347.600 134.848,347.600 134.376 C 347.600 133.865,346.909 133.899,346.584 134.427 M221.039 134.738 C 220.900 134.961,220.982 135.265,221.220 135.412 C 221.835 135.793,222.232 135.272,221.718 134.758 C 221.431 134.471,221.207 134.464,221.039 134.738 M344.800 135.000 C 344.392 135.491,344.420 135.600,344.951 135.600 C 345.308 135.600,345.600 135.330,345.600 135.000 C 345.600 134.670,345.532 134.400,345.449 134.400 C 345.366 134.400,345.074 134.670,344.800 135.000 M224.619 164.714 C 224.557 164.777,223.357 164.880,221.953 164.944 C 220.258 165.022,219.434 165.219,219.500 165.530 C 219.555 165.789,219.445 166.000,219.256 166.000 C 219.067 166.000,218.962 166.706,219.024 167.568 L 219.136 169.136 217.568 169.024 C 216.706 168.962,216.000 169.067,216.000 169.256 C 216.000 169.445,215.786 169.555,215.525 169.500 C 215.215 169.435,215.010 170.162,214.934 171.600 C 214.831 173.553,214.781 341.913,214.882 345.733 C 214.926 347.372,216.109 348.273,217.596 347.801 C 218.544 347.501,219.286 348.516,218.988 349.704 C 218.372 352.160,213.748 351.995,283.379 351.995 C 333.385 351.995,346.793 351.890,347.117 351.498 C 347.343 351.224,347.651 350.342,347.802 349.537 C 348.044 348.243,348.243 348.044,349.537 347.802 C 350.342 347.651,351.224 347.343,351.498 347.117 C 352.369 346.397,352.212 170.270,351.341 169.398 C 350.911 168.968,350.347 168.827,349.704 168.988 C 348.516 169.286,347.501 168.544,347.801 167.596 C 348.386 165.755,347.443 164.965,344.540 164.866 C 340.490 164.727,224.753 164.581,224.619 164.714 M59.300 264.687 C 59.905 264.778,60.895 264.778,61.500 264.687 C 62.105 264.595,61.610 264.520,60.400 264.520 C 59.190 264.520,58.695 264.595,59.300 264.687 M171.700 264.687 C 172.305 264.778,173.295 264.778,173.900 264.687 C 174.505 264.595,174.010 264.520,172.800 264.520 C 171.590 264.520,171.095 264.595,171.700 264.687 M52.639 265.138 C 52.500 265.361,52.582 265.665,52.820 265.812 C 53.435 266.193,53.832 265.672,53.318 265.158 C 53.031 264.871,52.807 264.864,52.639 265.138 M178.800 265.176 C 178.800 265.336,179.025 265.475,179.300 265.486 C 179.575 265.496,180.117 265.636,180.505 265.797 C 181.008 266.006,181.149 265.934,181.000 265.545 C 180.785 264.985,178.800 264.653,178.800 265.176 M52.473 266.887 C 52.213 267.147,52.007 267.729,52.016 268.180 C 52.030 268.877,52.124 268.830,52.647 267.865 C 53.316 266.630,53.228 266.132,52.473 266.887 M49.200 269.224 C 49.200 269.457,48.992 269.519,48.738 269.362 C 48.452 269.185,48.385 269.252,48.562 269.538 C 48.719 269.792,48.646 270.000,48.400 270.000 C 48.154 270.000,48.071 270.192,48.216 270.426 C 48.388 270.705,48.742 270.614,49.240 270.164 C 50.069 269.414,50.231 268.800,49.600 268.800 C 49.380 268.800,49.200 268.991,49.200 269.224 M182.800 269.200 C 182.312 269.515,182.364 269.589,183.076 269.594 C 183.558 269.597,184.064 269.780,184.200 270.000 C 184.527 270.529,185.200 270.513,185.200 269.976 C 185.200 269.743,185.039 269.652,184.842 269.774 C 184.645 269.896,184.381 269.726,184.254 269.398 C 183.989 268.706,183.638 268.658,182.800 269.200 M184.639 271.138 C 184.500 271.361,184.582 271.665,184.820 271.812 C 185.435 272.193,185.832 271.672,185.318 271.158 C 185.031 270.871,184.807 270.864,184.639 271.138 M48.000 272.467 C 48.000 273.923,48.175 273.870,48.551 272.300 C 48.708 271.647,48.650 271.200,48.408 271.200 C 48.183 271.200,48.000 271.770,48.000 272.467 M184.800 345.000 C 184.392 345.491,184.420 345.600,184.951 345.600 C 185.308 345.600,185.600 345.330,185.600 345.000 C 185.600 344.670,185.532 344.400,185.449 344.400 C 185.366 344.400,185.074 344.670,184.800 345.000 M48.000 346.377 C 48.000 347.160,49.817 348.316,50.296 347.838 C 50.684 347.449,49.945 346.846,49.357 347.072 C 48.922 347.239,48.778 347.099,48.870 346.596 C 48.941 346.204,48.775 345.804,48.500 345.708 C 48.203 345.604,48.000 345.875,48.000 346.377 M184.184 346.827 C 184.039 347.061,184.016 347.349,184.133 347.467 C 184.420 347.753,185.200 347.248,185.200 346.776 C 185.200 346.265,184.509 346.299,184.184 346.827 M182.484 347.442 C 182.061 347.900,182.074 348.000,182.561 348.000 C 183.240 348.000,183.764 347.347,183.307 347.070 C 183.138 346.968,182.768 347.135,182.484 347.442 M51.903 348.606 C 52.009 349.159,52.254 349.710,52.448 349.830 C 52.858 350.083,52.883 349.750,52.548 348.500 C 52.217 347.267,51.665 347.358,51.903 348.606 M52.650 351.120 C 52.486 351.384,52.439 351.600,52.544 351.600 C 52.649 351.600,53.019 351.709,53.367 351.843 C 53.721 351.979,54.000 351.880,54.000 351.619 C 54.000 351.363,53.835 351.255,53.634 351.379 C 53.433 351.503,53.196 351.388,53.107 351.122 C 52.982 350.747,52.880 350.747,52.650 351.120 M179.311 351.332 C 179.494 351.883,180.356 351.960,180.500 351.438 C 180.555 351.239,180.275 351.029,179.877 350.970 C 179.470 350.910,179.223 351.068,179.311 351.332 " stroke="none" fill="#fc9424" fill-rule="evenodd"></path><path id="path2" d="M259.331 48.300 C 272.713 48.358,294.493 48.358,307.731 48.300 C 320.969 48.241,310.020 48.194,283.400 48.194 C 256.780 48.194,245.949 48.242,259.331 48.300 M222.032 48.682 C 221.994 49.261,220.305 50.953,219.602 51.116 C 219.298 51.187,219.195 50.991,219.338 50.616 C 219.468 50.277,219.387 50.000,219.158 50.000 C 218.212 50.000,219.059 51.401,220.017 51.421 C 220.569 51.432,221.286 51.598,221.610 51.790 C 221.956 51.994,221.885 51.778,221.438 51.269 C 220.750 50.484,220.831 50.212,221.711 50.356 C 222.146 50.428,222.518 49.332,222.269 48.713 C 222.122 48.348,222.054 48.339,222.032 48.682 M222.800 49.200 C 222.800 49.947,222.907 50.053,223.280 49.680 C 223.653 49.307,223.653 49.093,223.280 48.720 C 222.907 48.347,222.800 48.453,222.800 49.200 M344.000 49.324 C 344.000 49.664,344.419 50.272,344.932 50.675 C 345.445 51.078,345.788 51.637,345.694 51.917 C 345.601 52.196,345.767 52.374,346.063 52.313 C 346.950 52.127,347.163 51.506,346.550 50.893 C 346.147 50.490,346.096 50.166,346.380 49.824 C 346.664 49.482,346.638 49.322,346.294 49.296 C 346.022 49.275,345.395 49.134,344.900 48.982 C 344.236 48.779,344.000 48.869,344.000 49.324 M344.227 51.630 C 345.078 52.570,345.156 52.580,345.031 51.733 C 344.978 51.367,344.618 51.020,344.232 50.964 C 343.565 50.866,343.565 50.899,344.227 51.630 M218.956 52.767 C 218.980 53.115,218.775 53.355,218.500 53.300 C 218.225 53.245,218.000 53.391,218.000 53.624 C 218.000 53.857,217.850 53.955,217.667 53.841 C 217.483 53.728,217.333 53.894,217.333 54.211 C 217.333 54.646,217.464 54.679,217.867 54.345 C 218.264 54.015,218.400 54.033,218.400 54.418 C 218.400 54.924,218.986 54.589,219.014 54.067 C 219.022 53.920,219.237 53.425,219.493 52.967 C 219.858 52.310,219.846 52.133,219.434 52.133 C 219.146 52.133,218.931 52.418,218.956 52.767 M215.600 56.824 C 215.600 57.280,215.781 57.535,216.007 57.396 C 216.230 57.258,216.319 56.993,216.204 56.807 C 216.089 56.621,216.221 56.377,216.498 56.266 C 216.801 56.144,216.722 56.051,216.300 56.032 C 215.850 56.011,215.600 56.294,215.600 56.824 M351.101 56.733 C 350.440 56.995,350.441 57.033,351.116 57.455 C 351.704 57.822,351.829 57.769,351.829 57.150 C 351.829 56.737,351.822 56.413,351.814 56.428 C 351.806 56.444,351.486 56.581,351.101 56.733 M214.643 62.233 C 214.289 63.156,214.345 120.800,214.700 120.800 C 214.865 120.800,215.000 107.480,215.000 91.200 C 215.000 74.920,214.974 61.600,214.943 61.600 C 214.911 61.600,214.776 61.885,214.643 62.233 M214.987 126.311 C 215.059 126.910,215.310 127.357,215.544 127.305 C 215.779 127.252,215.868 127.477,215.743 127.805 C 215.617 128.132,215.718 128.400,215.966 128.400 C 216.214 128.400,216.620 128.844,216.867 129.387 C 217.115 129.931,217.471 130.280,217.658 130.164 C 217.846 130.048,218.000 130.173,218.000 130.443 C 218.000 130.713,218.120 130.813,218.268 130.666 C 218.415 130.519,218.835 130.669,219.201 131.001 C 219.799 131.542,219.861 131.530,219.813 130.882 C 219.765 130.224,218.400 128.542,217.718 128.300 C 217.298 128.151,215.666 126.468,215.802 126.324 C 215.867 126.256,215.680 125.980,215.388 125.711 C 214.955 125.312,214.881 125.423,214.987 126.311 M349.628 127.513 C 349.613 128.014,349.285 128.538,348.900 128.677 C 347.641 129.129,346.661 130.372,347.355 130.638 C 347.712 130.775,347.849 131.127,347.699 131.520 C 347.478 132.095,347.522 132.104,348.071 131.592 C 348.634 131.066,348.632 130.960,348.047 130.484 C 347.477 130.021,347.507 129.988,348.300 130.206 C 348.993 130.397,349.201 130.287,349.206 129.727 C 349.210 129.269,349.321 129.169,349.506 129.456 C 349.721 129.789,349.932 129.770,350.288 129.385 C 350.673 128.971,350.673 128.817,350.288 128.661 C 350.010 128.548,350.102 128.450,350.500 128.432 C 351.288 128.396,351.366 128.076,350.800 127.200 C 350.477 126.701,350.406 126.735,350.378 127.400 L 350.344 128.200 350.000 127.400 C 349.674 126.641,349.655 126.646,349.628 127.513 M350.588 130.020 C 350.207 130.635,350.728 131.032,351.242 130.518 C 351.529 130.231,351.536 130.007,351.262 129.839 C 351.039 129.700,350.735 129.782,350.588 130.020 M346.200 131.200 C 346.336 131.420,346.122 131.605,345.724 131.612 C 345.039 131.624,345.038 131.646,345.703 132.034 C 346.090 132.259,346.577 132.338,346.786 132.209 C 347.239 131.929,346.877 130.800,346.334 130.800 C 346.124 130.800,346.064 130.980,346.200 131.200 M221.478 131.856 C 221.337 131.996,221.352 132.311,221.511 132.556 C 221.670 132.800,221.822 133.360,221.849 133.800 C 221.952 135.459,222.017 135.600,222.676 135.600 C 223.266 135.600,223.253 135.525,222.576 135.020 C 221.834 134.465,221.842 134.451,222.763 134.683 C 223.441 134.854,223.639 134.787,223.435 134.456 C 223.275 134.198,222.977 134.091,222.772 134.217 C 222.568 134.344,222.400 134.087,222.400 133.647 C 222.400 133.207,222.217 132.734,221.993 132.596 C 221.770 132.458,221.691 132.177,221.817 131.972 C 222.080 131.548,221.861 131.473,221.478 131.856 M218.832 132.700 C 218.850 133.118,218.944 133.199,219.065 132.900 C 219.344 132.208,220.376 132.272,220.655 133.000 C 220.782 133.330,221.048 133.600,221.246 133.600 C 221.445 133.600,221.382 133.240,221.107 132.800 C 220.475 131.787,218.787 131.713,218.832 132.700 M344.406 132.324 C 344.403 132.617,344.197 132.722,343.938 132.562 C 343.650 132.384,343.585 132.452,343.766 132.745 C 343.925 133.002,344.223 133.109,344.428 132.983 C 344.970 132.648,344.883 133.345,344.300 134.009 C 344.025 134.323,344.186 134.258,344.659 133.865 C 345.328 133.308,345.569 133.267,345.751 133.676 C 345.888 133.982,345.947 133.900,345.893 133.479 C 345.842 133.082,345.640 132.783,345.445 132.813 C 345.249 132.843,344.937 132.628,344.751 132.334 C 344.477 131.902,344.411 131.900,344.406 132.324 M339.200 135.230 C 339.200 135.379,339.650 135.500,340.200 135.500 C 340.750 135.500,341.200 135.379,341.200 135.230 C 341.200 135.081,340.750 134.960,340.200 134.960 C 339.650 134.960,339.200 135.081,339.200 135.230 M258.100 164.700 C 271.905 164.758,294.495 164.758,308.300 164.700 C 322.105 164.642,310.810 164.594,283.200 164.594 C 255.590 164.594,244.295 164.642,258.100 164.700 M214.596 258.200 C 214.596 299.560,214.643 316.539,214.700 295.932 C 214.757 275.324,214.757 241.484,214.700 220.732 C 214.643 199.979,214.596 216.840,214.596 258.200 M62.138 264.706 C 61.884 264.868,86.229 265.000,116.238 265.000 C 146.247 265.000,170.800 264.865,170.800 264.700 C 170.800 264.312,62.748 264.318,62.138 264.706 M175.711 265.388 C 175.980 265.680,176.256 265.867,176.324 265.802 C 176.468 265.666,178.151 267.298,178.300 267.718 C 178.542 268.400,180.224 269.765,180.882 269.813 C 181.530 269.861,181.542 269.799,181.001 269.201 C 180.669 268.835,180.519 268.415,180.666 268.268 C 180.813 268.120,180.713 268.000,180.443 268.000 C 180.173 268.000,180.048 267.846,180.164 267.658 C 180.280 267.471,179.931 267.115,179.387 266.867 C 178.844 266.620,178.400 266.214,178.400 265.966 C 178.400 265.718,178.132 265.617,177.805 265.743 C 177.477 265.868,177.252 265.779,177.305 265.544 C 177.357 265.310,176.910 265.059,176.311 264.987 C 175.423 264.881,175.312 264.955,175.711 265.388 M56.032 266.300 C 56.051 266.722,56.144 266.801,56.266 266.498 C 56.377 266.221,56.621 266.089,56.807 266.204 C 56.993 266.319,57.258 266.230,57.396 266.007 C 57.535 265.781,57.280 265.600,56.824 265.600 C 56.294 265.600,56.011 265.850,56.032 266.300 M53.841 267.667 C 53.955 267.850,53.857 268.000,53.624 268.000 C 53.391 268.000,53.245 268.225,53.300 268.500 C 53.355 268.775,53.115 268.980,52.767 268.956 C 52.418 268.931,52.133 269.146,52.133 269.434 C 52.133 269.846,52.310 269.858,52.967 269.493 C 53.425 269.237,53.920 269.022,54.067 269.014 C 54.589 268.986,54.924 268.400,54.418 268.400 C 54.033 268.400,54.015 268.264,54.345 267.867 C 54.679 267.464,54.646 267.333,54.211 267.333 C 53.894 267.333,53.728 267.483,53.841 267.667 M50.000 269.158 C 50.000 269.387,50.277 269.468,50.616 269.338 C 51.935 268.833,50.113 271.536,48.723 272.149 C 48.435 272.275,48.650 272.339,49.200 272.290 C 49.750 272.240,50.223 271.975,50.250 271.700 C 50.278 271.425,50.323 271.082,50.350 270.938 C 50.377 270.794,50.791 271.019,51.269 271.438 C 51.778 271.885,51.994 271.956,51.790 271.610 C 51.598 271.286,51.432 270.569,51.421 270.017 C 51.401 269.059,50.000 268.212,50.000 269.158 M182.000 269.704 C 182.000 270.201,182.360 270.832,182.800 271.107 C 183.240 271.382,183.600 271.445,183.600 271.246 C 183.600 271.048,183.330 270.782,183.000 270.655 C 182.272 270.376,182.208 269.344,182.900 269.065 C 183.199 268.944,183.118 268.850,182.700 268.832 C 182.231 268.810,182.000 269.098,182.000 269.704 M181.766 271.655 C 181.592 271.937,181.649 272.017,181.911 271.855 C 182.149 271.708,182.458 271.770,182.596 271.993 C 182.734 272.217,183.207 272.400,183.647 272.400 C 184.087 272.400,184.344 272.568,184.217 272.772 C 184.091 272.977,184.198 273.275,184.456 273.435 C 184.787 273.639,184.854 273.441,184.683 272.763 C 184.451 271.842,184.465 271.834,185.020 272.576 C 185.525 273.253,185.600 273.266,185.600 272.676 C 185.600 272.017,185.459 271.952,183.800 271.849 C 183.360 271.822,182.787 271.662,182.528 271.493 C 182.268 271.325,181.925 271.398,181.766 271.655 M48.720 273.280 C 49.093 273.653,49.307 273.653,49.680 273.280 C 50.053 272.907,49.947 272.800,49.200 272.800 C 48.453 272.800,48.347 272.907,48.720 273.280 M48.187 308.400 C 48.187 321.270,48.238 326.535,48.300 320.100 C 48.362 313.665,48.362 303.135,48.300 296.700 C 48.238 290.265,48.187 295.530,48.187 308.400 M184.960 340.200 C 184.960 340.750,185.082 341.200,185.230 341.200 C 185.379 341.200,185.500 340.750,185.500 340.200 C 185.500 339.650,185.379 339.200,185.230 339.200 C 185.082 339.200,184.960 339.650,184.960 340.200 M50.969 344.267 C 51.022 344.633,51.382 344.980,51.768 345.036 C 52.435 345.134,52.435 345.101,51.773 344.370 C 50.922 343.430,50.844 343.420,50.969 344.267 M182.562 343.938 C 182.722 344.197,182.617 344.403,182.324 344.406 C 181.900 344.411,181.902 344.477,182.334 344.751 C 182.628 344.937,182.843 345.249,182.813 345.445 C 182.783 345.640,183.082 345.842,183.479 345.893 C 183.900 345.947,183.982 345.888,183.676 345.751 C 183.267 345.569,183.308 345.328,183.865 344.659 C 184.258 344.186,184.323 344.025,184.009 344.300 C 183.345 344.883,182.648 344.970,182.983 344.428 C 183.109 344.223,183.002 343.925,182.745 343.766 C 182.452 343.585,182.384 343.650,182.562 343.938 M48.982 344.900 C 49.134 345.395,49.275 346.022,49.296 346.294 C 49.322 346.638,49.482 346.664,49.824 346.380 C 50.166 346.096,50.490 346.147,50.893 346.550 C 51.506 347.163,52.127 346.950,52.313 346.063 C 52.374 345.767,52.196 345.601,51.917 345.694 C 51.637 345.788,51.078 345.445,50.675 344.932 C 49.699 343.691,48.606 343.670,48.982 344.900 M181.612 345.724 C 181.605 346.122,181.420 346.336,181.200 346.200 C 180.980 346.064,180.800 346.124,180.800 346.334 C 180.800 346.877,181.929 347.239,182.209 346.786 C 182.338 346.577,182.259 346.090,182.034 345.703 C 181.646 345.038,181.624 345.039,181.612 345.724 M179.565 347.539 C 179.216 347.902,178.816 348.515,178.678 348.900 C 178.539 349.285,178.014 349.613,177.513 349.628 C 176.646 349.655,176.641 349.674,177.400 350.000 L 178.200 350.344 177.400 350.378 C 176.735 350.406,176.701 350.477,177.200 350.800 C 178.076 351.366,178.396 351.288,178.432 350.500 C 178.450 350.102,178.548 350.010,178.661 350.288 C 178.817 350.673,178.971 350.673,179.385 350.288 C 179.770 349.932,179.789 349.721,179.456 349.506 C 179.169 349.321,179.269 349.210,179.727 349.206 C 180.287 349.201,180.397 348.993,180.206 348.300 C 179.988 347.507,180.021 347.477,180.484 348.047 C 180.952 348.622,181.072 348.627,181.573 348.091 C 182.057 347.572,182.057 347.515,181.568 347.679 C 181.256 347.784,180.820 347.647,180.600 347.374 C 180.287 346.986,180.061 347.022,179.565 347.539 M55.600 350.308 C 55.600 350.532,55.881 350.822,56.225 350.954 C 56.569 351.086,56.763 351.337,56.655 351.511 C 56.547 351.686,56.783 351.829,57.179 351.829 C 57.764 351.829,57.818 351.697,57.465 351.132 C 57.226 350.750,56.950 350.517,56.852 350.615 C 56.754 350.713,56.432 350.593,56.137 350.348 C 55.799 350.067,55.600 350.053,55.600 350.308 M179.817 350.772 C 179.544 351.214,180.175 351.692,180.544 351.322 C 180.925 350.942,180.854 350.400,180.424 350.400 C 180.217 350.400,179.944 350.568,179.817 350.772 " stroke="none" fill="#fcb050" fill-rule="evenodd"></path><path id="path3" d="M345.871 133.152 C 346.026 133.741,345.936 133.995,345.601 133.917 C 345.325 133.853,345.046 134.030,344.980 134.310 C 344.914 134.590,344.952 134.634,345.064 134.408 C 345.176 134.181,345.397 134.074,345.553 134.171 C 346.346 134.661,346.996 133.625,346.320 132.949 C 345.681 132.309,345.654 132.321,345.871 133.152 M220.060 133.580 C 220.148 133.844,220.350 134.047,220.510 134.030 C 220.988 133.981,220.896 133.432,220.380 133.260 C 220.116 133.172,219.972 133.316,220.060 133.580 M183.260 270.380 C 183.348 270.644,183.551 270.847,183.710 270.830 C 184.188 270.781,184.096 270.232,183.580 270.060 C 183.316 269.972,183.172 270.116,183.260 270.380 M183.953 345.100 C 183.927 345.265,183.934 345.558,183.970 345.751 C 184.005 345.944,183.637 345.998,183.152 345.871 C 182.309 345.651,182.302 345.672,182.983 346.320 C 183.643 346.950,184.209 346.635,183.996 345.755 C 183.961 345.609,184.172 345.337,184.466 345.151 C 184.865 344.898,184.874 344.811,184.500 344.806 C 184.225 344.803,183.979 344.935,183.953 345.100 " stroke="none" fill="#fca430" fill-rule="evenodd"></path><path id="path4" d="M349.860 52.673 C 349.464 53.069,349.550 53.678,349.966 53.421 C 350.167 53.297,350.412 53.421,350.511 53.698 C 350.610 53.974,350.790 54.110,350.913 53.999 C 351.035 53.889,350.907 53.487,350.628 53.106 C 350.349 52.724,350.004 52.530,349.860 52.673 M215.628 53.766 C 215.330 54.125,215.205 54.538,215.350 54.683 C 215.723 55.057,216.522 54.167,216.330 53.591 C 216.220 53.260,216.003 53.314,215.628 53.766 M351.185 54.982 C 351.451 55.303,351.553 55.753,351.411 55.982 C 351.269 56.212,351.343 56.400,351.576 56.400 C 351.809 56.400,352.000 56.235,352.000 56.033 C 352.000 55.304,351.506 54.400,351.108 54.400 C 350.869 54.400,350.900 54.639,351.185 54.982 M347.150 131.000 C 347.123 131.110,347.075 131.335,347.044 131.500 C 347.013 131.665,346.835 132.041,346.649 132.335 C 346.447 132.653,346.499 133.058,346.779 133.335 C 347.136 133.690,347.184 133.634,346.981 133.100 C 346.834 132.715,346.893 132.400,347.111 132.400 C 347.328 132.400,347.601 132.040,347.716 131.600 C 347.831 131.160,347.762 130.800,347.563 130.800 C 347.363 130.800,347.178 130.890,347.150 131.000 M53.562 265.846 C 53.098 266.405,53.127 266.473,53.780 266.346 C 54.194 266.266,54.609 265.975,54.700 265.700 C 54.938 264.986,54.196 265.082,53.562 265.846 M182.233 346.700 C 182.068 346.865,181.738 347.000,181.500 347.000 C 181.262 347.000,180.996 347.211,180.910 347.469 C 180.811 347.767,181.054 347.859,181.577 347.722 C 182.030 347.604,182.400 347.328,182.400 347.111 C 182.400 346.893,182.679 346.822,183.021 346.953 C 183.377 347.089,183.537 347.022,183.397 346.795 C 183.106 346.324,182.647 346.287,182.233 346.700 M52.649 349.920 C 52.541 350.096,52.800 350.457,53.226 350.723 C 53.693 351.015,54.000 351.047,54.000 350.803 C 54.000 350.582,53.809 350.400,53.576 350.400 C 53.343 350.400,53.264 350.220,53.400 350.000 C 53.536 349.780,53.467 349.600,53.247 349.600 C 53.027 349.600,52.758 349.744,52.649 349.920 M54.400 351.124 C 54.400 351.793,56.025 352.140,56.540 351.581 C 56.899 351.192,56.834 351.141,56.249 351.348 C 55.836 351.494,55.251 351.409,54.949 351.158 C 54.585 350.856,54.400 350.844,54.400 351.124 " stroke="none" fill="#fc9434" fill-rule="evenodd"></path></g></svg>