<svg width="116" height="24" viewBox="0 0 116 24" fill="none" xmlns="http://www.w3.org/2000/svg">
<path d="M14.584 11.48C15.8853 11.7573 16.9307 12.408 17.72 13.432C18.5093 14.4347 18.904 15.5867 18.904 16.888C18.904 18.7653 18.2427 20.2587 16.92 21.368C15.6187 22.456 13.7947 23 11.448 23H0.984V0.535999H11.096C13.3787 0.535999 15.16 1.05867 16.44 2.104C17.7413 3.14933 18.392 4.568 18.392 6.36C18.392 7.68267 18.04 8.78133 17.336 9.656C16.6533 10.5307 15.736 11.1387 14.584 11.48ZM6.456 9.624H10.04C10.936 9.624 11.6187 9.432 12.088 9.048C12.5787 8.64267 12.824 8.056 12.824 7.288C12.824 6.52 12.5787 5.93333 12.088 5.528C11.6187 5.12267 10.936 4.92 10.04 4.92H6.456V9.624ZM10.488 18.584C11.4053 18.584 12.1093 18.3813 12.6 17.976C13.112 17.5493 13.368 16.9413 13.368 16.152C13.368 15.3627 13.1013 14.744 12.568 14.296C12.056 13.848 11.3413 13.624 10.424 13.624H6.456V18.584H10.488ZM41.3418 0.535999L33.5658 15.576V23H28.0938V15.576L20.3178 0.535999H26.5258L30.8778 9.944L35.1978 0.535999H41.3418ZM43.0985 11.8C43.0985 9.60267 43.5785 7.64 44.5385 5.912C45.4985 4.16267 46.8105 2.808 48.4745 1.848C50.1385 0.866666 51.9945 0.375999 54.0425 0.375999C56.5385 0.375999 58.6718 0.973333 60.4425 2.168C62.2345 3.34133 63.5358 5.00533 64.3465 7.16H61.7225C61.0825 5.64533 60.1012 4.46133 58.7785 3.608C57.4772 2.75467 55.8985 2.328 54.0425 2.328C52.3998 2.328 50.9172 2.712 49.5945 3.48C48.2932 4.248 47.2692 5.35733 46.5225 6.808C45.7758 8.23733 45.4025 9.90133 45.4025 11.8C45.4025 13.6987 45.7758 15.3627 46.5225 16.792C47.2692 18.2213 48.2932 19.32 49.5945 20.088C50.9172 20.856 52.3998 21.24 54.0425 21.24C55.8985 21.24 57.4772 20.824 58.7785 19.992C60.1012 19.1387 61.0825 17.9653 61.7225 16.472H64.3465C63.5358 18.6053 62.2345 20.2587 60.4425 21.432C58.6505 22.6053 56.5172 23.192 54.0425 23.192C51.9945 23.192 50.1385 22.712 48.4745 21.752C46.8105 20.7707 45.4985 19.416 44.5385 17.688C43.5785 15.96 43.0985 13.9973 43.0985 11.8ZM78.858 23.224C76.7887 23.224 74.9113 22.744 73.226 21.784C71.5407 20.8027 70.2073 19.448 69.226 17.72C68.266 15.9707 67.786 13.9973 67.786 11.8C67.786 9.60267 68.266 7.64 69.226 5.912C70.2073 4.16267 71.5407 2.808 73.226 1.848C74.9113 0.866666 76.7887 0.375999 78.858 0.375999C80.9487 0.375999 82.8367 0.866666 84.522 1.848C86.2073 2.808 87.53 4.16267 88.49 5.912C89.45 7.64 89.93 9.60267 89.93 11.8C89.93 13.9973 89.45 15.9707 88.49 17.72C87.53 19.448 86.2073 20.8027 84.522 21.784C82.8367 22.744 80.9487 23.224 78.858 23.224ZM78.858 21.272C80.522 21.272 82.0153 20.888 83.338 20.12C84.6607 19.352 85.706 18.2533 86.474 16.824C87.242 15.3733 87.626 13.6987 87.626 11.8C87.626 9.90133 87.242 8.23733 86.474 6.808C85.706 5.37867 84.6607 4.28 83.338 3.512C82.0153 2.744 80.522 2.36 78.858 2.36C77.194 2.36 75.7007 2.744 74.378 3.512C73.0553 4.28 72.01 5.37867 71.242 6.808C70.474 8.23733 70.09 9.90133 70.09 11.8C70.09 13.6987 70.474 15.3733 71.242 16.824C72.01 18.2533 73.0553 19.352 74.378 20.12C75.7007 20.888 77.194 21.272 78.858 21.272ZM115.885 0.919998V23H113.645V5.368L105.773 23H104.141L96.2688 5.432V23H94.0288V0.919998H96.3968L104.941 20.056L113.485 0.919998H115.885Z" fill="white"/>
</svg>
