<svg width="406" height="81" viewBox="0 0 406 81" fill="none" xmlns="http://www.w3.org/2000/svg">
<path d="M48.031 39.32C52.6263 40.2993 56.3177 42.597 59.105 46.213C61.8923 49.7537 63.286 53.8217 63.286 58.417C63.286 65.0463 60.9507 70.3197 56.28 74.237C51.6847 78.079 45.2437 80 36.957 80H0.00600031V0.673998H35.714C43.7747 0.673998 50.065 2.51966 54.585 6.21099C59.1803 9.90233 61.478 14.912 61.478 21.24C61.478 25.9107 60.235 29.7903 57.749 32.879C55.3383 35.9677 52.099 38.1147 48.031 39.32ZM19.329 32.766H31.985C35.149 32.766 37.5597 32.088 39.217 30.732C40.9497 29.3007 41.816 27.229 41.816 24.517C41.816 21.805 40.9497 19.7333 39.217 18.302C37.5597 16.8707 35.149 16.155 31.985 16.155H19.329V32.766ZM33.567 64.406C36.8063 64.406 39.2923 63.6903 41.025 62.259C42.833 60.7523 43.737 58.6053 43.737 55.818C43.737 53.0307 42.7953 50.846 40.912 49.264C39.104 47.682 36.5803 46.891 33.341 46.891H19.329V64.406H33.567ZM142.519 0.673998L115.06 53.784V80H95.7373V53.784L68.2783 0.673998H90.2003L105.568 33.896L120.823 0.673998H142.519ZM148.723 40.45C148.723 32.6907 150.418 25.76 153.808 19.658C157.198 13.4807 161.831 8.697 167.707 5.307C173.583 1.84166 180.137 0.108998 187.369 0.108998C196.183 0.108998 203.716 2.21833 209.969 6.437C216.297 10.5803 220.892 16.4563 223.755 24.065H214.489C212.229 18.7163 208.763 14.5353 204.093 11.522C199.497 8.50866 193.923 7.002 187.369 7.002C181.568 7.002 176.332 8.358 171.662 11.07C167.066 13.782 163.45 17.6993 160.814 22.822C158.177 27.8693 156.859 33.7453 156.859 40.45C156.859 47.1547 158.177 53.0307 160.814 58.078C163.45 63.1253 167.066 67.005 171.662 69.717C176.332 72.429 181.568 73.785 187.369 73.785C193.923 73.785 199.497 72.316 204.093 69.378C208.763 66.3647 212.229 62.2213 214.489 56.948H223.755C220.892 64.4813 216.297 70.3197 209.969 74.463C203.641 78.6063 196.107 80.678 187.369 80.678C180.137 80.678 173.583 78.983 167.707 75.593C161.831 72.1277 157.198 67.344 153.808 61.242C150.418 55.14 148.723 48.2093 148.723 40.45ZM274.999 80.791C267.691 80.791 261.062 79.096 255.111 75.706C249.159 72.2407 244.451 67.457 240.986 61.355C237.596 55.1777 235.901 48.2093 235.901 40.45C235.901 32.6907 237.596 25.76 240.986 19.658C244.451 13.4807 249.159 8.697 255.111 5.307C261.062 1.84166 267.691 0.108998 274.999 0.108998C282.381 0.108998 289.048 1.84166 295 5.307C300.951 8.697 305.622 13.4807 309.012 19.658C312.402 25.76 314.097 32.6907 314.097 40.45C314.097 48.2093 312.402 55.1777 309.012 61.355C305.622 67.457 300.951 72.2407 295 75.706C289.048 79.096 282.381 80.791 274.999 80.791ZM274.999 73.898C280.875 73.898 286.148 72.542 290.819 69.83C295.489 67.118 299.181 63.2383 301.893 58.191C304.605 53.0683 305.961 47.1547 305.961 40.45C305.961 33.7453 304.605 27.8693 301.893 22.822C299.181 17.7747 295.489 13.895 290.819 11.183C286.148 8.471 280.875 7.115 274.999 7.115C269.123 7.115 263.849 8.471 259.179 11.183C254.508 13.895 250.817 17.7747 248.105 22.822C245.393 27.8693 244.037 33.7453 244.037 40.45C244.037 47.1547 245.393 53.0683 248.105 58.191C250.817 63.2383 254.508 67.118 259.179 69.83C263.849 72.542 269.123 73.898 274.999 73.898ZM405.749 2.02999V80H397.839V17.737L370.041 80H364.278L336.48 17.963V80H328.57V2.02999H336.932L367.103 69.604L397.274 2.02999H405.749Z" fill="white"/>
</svg>
