<svg width="24" height="25" viewBox="0 0 24 25" fill="none" xmlns="http://www.w3.org/2000/svg">
<path d="M12 2.3125C12 1.91468 12.158 1.53314 12.4393 1.25184C12.7206 0.970535 13.1022 0.8125 13.5 0.8125L22.5 0.8125C22.8978 0.8125 23.2794 0.970535 23.5607 1.25184C23.842 1.53314 24 1.91468 24 2.3125V23.3125C24 23.7103 23.842 24.0919 23.5607 24.3732C23.2794 24.6545 22.8978 24.8125 22.5 24.8125H13.5C13.1022 24.8125 12.7206 24.6545 12.4393 24.3732C12.158 24.0919 12 23.7103 12 23.3125V2.3125ZM13.5 22.5625C13.5 22.7614 13.579 22.9522 13.7197 23.0928C13.8603 23.2335 14.0511 23.3125 14.25 23.3125C14.4489 23.3125 14.6397 23.2335 14.7803 23.0928C14.921 22.9522 15 22.7614 15 22.5625C15 22.3636 14.921 22.1728 14.7803 22.0322C14.6397 21.8915 14.4489 21.8125 14.25 21.8125C14.0511 21.8125 13.8603 21.8915 13.7197 22.0322C13.579 22.1728 13.5 22.3636 13.5 22.5625ZM16.5 22.5625C16.5 22.7614 16.579 22.9522 16.7197 23.0928C16.8603 23.2335 17.0511 23.3125 17.25 23.3125C17.4489 23.3125 17.6397 23.2335 17.7803 23.0928C17.921 22.9522 18 22.7614 18 22.5625C18 22.3636 17.921 22.1728 17.7803 22.0322C17.6397 21.8915 17.4489 21.8125 17.25 21.8125C17.0511 21.8125 16.8603 21.8915 16.7197 22.0322C16.579 22.1728 16.5 22.3636 16.5 22.5625ZM14.25 2.3125C14.0511 2.3125 13.8603 2.39152 13.7197 2.53217C13.579 2.67282 13.5 2.86359 13.5 3.0625C13.5 3.26141 13.579 3.45218 13.7197 3.59283C13.8603 3.73348 14.0511 3.8125 14.25 3.8125H21.75C21.9489 3.8125 22.1397 3.73348 22.2803 3.59283C22.421 3.45218 22.5 3.26141 22.5 3.0625C22.5 2.86359 22.421 2.67282 22.2803 2.53217C22.1397 2.39152 21.9489 2.3125 21.75 2.3125H14.25ZM13.5 6.0625C13.5 6.26141 13.579 6.45218 13.7197 6.59283C13.8603 6.73348 14.0511 6.8125 14.25 6.8125H21.75C21.9489 6.8125 22.1397 6.73348 22.2803 6.59283C22.421 6.45218 22.5 6.26141 22.5 6.0625C22.5 5.86359 22.421 5.67282 22.2803 5.53217C22.1397 5.39152 21.9489 5.3125 21.75 5.3125H14.25C14.0511 5.3125 13.8603 5.39152 13.7197 5.53217C13.579 5.67282 13.5 5.86359 13.5 6.0625ZM2.25 3.8125C1.65326 3.8125 1.08097 4.04955 0.65901 4.47151C0.237053 4.89347 0 5.46576 0 6.0625L0 16.5625C0 17.1592 0.237053 17.7315 0.65901 18.1535C1.08097 18.5754 1.65326 18.8125 2.25 18.8125H9V21.8125H8.25C8.05109 21.8125 7.86032 21.8915 7.71967 22.0322C7.57902 22.1728 7.5 22.3636 7.5 22.5625C7.5 22.7614 7.57902 22.9522 7.71967 23.0928C7.86032 23.2335 8.05109 23.3125 8.25 23.3125H10.5V17.3125H2.25C2.05109 17.3125 1.86032 17.2335 1.71967 17.0928C1.57902 16.9522 1.5 16.7614 1.5 16.5625V6.0625C1.5 5.86359 1.57902 5.67282 1.71967 5.53217C1.86032 5.39152 2.05109 5.3125 2.25 5.3125H10.5V3.8125H2.25Z" fill="#6C7383"/>
</svg>
