<svg width="50" height="50" viewBox="0 0 50 50" fill="none" xmlns="http://www.w3.org/2000/svg">
<path d="M46.8772 25.4858C46.8772 23.6872 46.7283 22.3747 46.406 21.0136H25.4487V29.1316H37.7501C37.5022 31.149 36.1629 34.1872 33.1867 36.2288L33.145 36.5006L39.7713 41.5312L40.2304 41.5761C44.4466 37.7601 46.8772 32.1455 46.8772 25.4858" fill="#4285F4"/>
<path d="M25.4472 46.875C31.4739 46.875 36.5334 44.9305 40.2289 41.5764L33.1852 36.229C31.3004 37.5172 28.7706 38.4165 25.4472 38.4165C19.5445 38.4165 14.5346 34.6006 12.7488 29.3262L12.487 29.348L5.59688 34.5738L5.50677 34.8193C9.17736 41.9651 16.717 46.875 25.4472 46.875Z" fill="#34A853"/>
<path d="M12.7501 29.3263C12.2789 27.9653 12.0062 26.5068 12.0062 24.9999C12.0062 23.4929 12.2789 22.0346 12.7253 20.6735L12.7128 20.3837L5.73635 15.074L5.50809 15.1804C3.99526 18.1457 3.1272 21.4756 3.1272 24.9999C3.1272 28.5242 3.99526 31.854 5.50809 34.8193L12.7501 29.3263" fill="#FBBC05"/>
<path d="M25.4473 11.5833C29.6387 11.5833 32.4661 13.3576 34.0782 14.8403L40.3778 8.8125C36.5089 5.2882 31.474 3.125 25.4473 3.125C16.7171 3.125 9.17738 8.03468 5.50677 15.1805L12.724 20.6736C14.5347 15.3993 19.5446 11.5833 25.4473 11.5833" fill="#EB4335"/>
</svg>
