<svg width="36" height="36" viewBox="0 0 36 36" fill="none" xmlns="http://www.w3.org/2000/svg">
<path fill-rule="evenodd" clip-rule="evenodd" d="M31.6245 10.4222C31.074 9.53124 30.12 9.00024 29.073 9.00024H9.873L8.9475 5.60574C8.769 4.95324 8.1765 4.50024 7.5 4.50024H4.5C3.6705 4.50024 3 5.17224 3 6.00024C3 6.82824 3.6705 7.50024 4.5 7.50024H6.354L10.5525 22.8947C10.731 23.5472 11.3235 24.0002 12 24.0002H25.5C26.0685 24.0002 26.5875 23.6792 26.8425 23.1707L31.7565 13.3412C32.2245 12.4037 32.175 11.3132 31.6245 10.4222ZM11.25 26.9999C10.008 26.9999 9 28.0064 9 29.2499C9 30.4934 10.008 31.4999 11.25 31.4999C12.492 31.4999 13.5 30.4934 13.5 29.2499C13.5 28.0064 12.492 26.9999 11.25 26.9999ZM24 29.2499C24 28.0064 25.008 26.9999 26.25 26.9999C27.492 26.9999 28.5 28.0064 28.5 29.2499C28.5 30.4934 27.492 31.4999 26.25 31.4999C25.008 31.4999 24 30.4934 24 29.2499Z" fill="#333333"/>
<mask id="mask0_28_5161" style="mask-type:alpha" maskUnits="userSpaceOnUse" x="3" y="4" width="30" height="28">
<path fill-rule="evenodd" clip-rule="evenodd" d="M31.6245 10.4222C31.074 9.53124 30.12 9.00024 29.073 9.00024H9.873L8.9475 5.60574C8.769 4.95324 8.1765 4.50024 7.5 4.50024H4.5C3.6705 4.50024 3 5.17224 3 6.00024C3 6.82824 3.6705 7.50024 4.5 7.50024H6.354L10.5525 22.8947C10.731 23.5472 11.3235 24.0002 12 24.0002H25.5C26.0685 24.0002 26.5875 23.6792 26.8425 23.1707L31.7565 13.3412C32.2245 12.4037 32.175 11.3132 31.6245 10.4222ZM11.25 26.9999C10.008 26.9999 9 28.0064 9 29.2499C9 30.4934 10.008 31.4999 11.25 31.4999C12.492 31.4999 13.5 30.4934 13.5 29.2499C13.5 28.0064 12.492 26.9999 11.25 26.9999ZM24 29.2499C24 28.0064 25.008 26.9999 26.25 26.9999C27.492 26.9999 28.5 28.0064 28.5 29.2499C28.5 30.4934 27.492 31.4999 26.25 31.4999C25.008 31.4999 24 30.4934 24 29.2499Z" fill="white"/>
</mask>
<g mask="url(#mask0_28_5161)">
<rect width="36" height="36" fill="white"/>
</g>
</svg>
