<svg width="88" height="24" viewBox="0 0 88 24" fill="none" xmlns="http://www.w3.org/2000/svg">
<path d="M12 0C5.4948 0 0 5.4948 0 12C0 18.5052 5.4948 24 12 24C18.5052 24 24 18.5052 24 12C24 5.4948 18.5052 0 12 0ZM12 6C14.0724 6 15.6 7.5264 15.6 9.6C15.6 11.6736 14.0724 13.2 12 13.2C9.9288 13.2 8.4 11.6736 8.4 9.6C8.4 7.5264 9.9288 6 12 6ZM5.8728 17.7264C6.9492 16.1424 8.7444 15.0864 10.8 15.0864H13.2C15.2568 15.0864 17.0508 16.1424 18.1272 17.7264C16.5936 19.368 14.418 20.4 12 20.4C9.582 20.4 7.4064 19.368 5.8728 17.7264Z" fill="white"/>
<path d="M38.864 18.112C38.1173 18.112 37.4453 17.984 36.848 17.728C36.2507 17.4613 35.7813 17.088 35.44 16.608C35.0987 16.128 34.928 15.568 34.928 14.928H36.88C36.9227 15.408 37.1093 15.8027 37.44 16.112C37.7813 16.4213 38.256 16.576 38.864 16.576C39.4933 16.576 39.984 16.4267 40.336 16.128C40.688 15.8187 40.864 15.424 40.864 14.944C40.864 14.5707 40.752 14.2667 40.528 14.032C40.3147 13.7973 40.0427 13.616 39.712 13.488C39.392 13.36 38.944 13.2213 38.368 13.072C37.6427 12.88 37.0507 12.688 36.592 12.496C36.144 12.2933 35.76 11.984 35.44 11.568C35.12 11.152 34.96 10.5973 34.96 9.904C34.96 9.264 35.12 8.704 35.44 8.224C35.76 7.744 36.208 7.376 36.784 7.12C37.36 6.864 38.0267 6.736 38.784 6.736C39.8613 6.736 40.7413 7.008 41.424 7.552C42.1173 8.08533 42.5013 8.82133 42.576 9.76H40.56C40.528 9.35467 40.336 9.008 39.984 8.72C39.632 8.432 39.168 8.288 38.592 8.288C38.0693 8.288 37.6427 8.42133 37.312 8.688C36.9813 8.95467 36.816 9.33867 36.816 9.84C36.816 10.1813 36.9173 10.464 37.12 10.688C37.3333 10.9013 37.6 11.072 37.92 11.2C38.24 11.328 38.6773 11.4667 39.232 11.616C39.968 11.8187 40.5653 12.0213 41.024 12.224C41.4933 12.4267 41.888 12.7413 42.208 13.168C42.5387 13.584 42.704 14.144 42.704 14.848C42.704 15.4133 42.5493 15.9467 42.24 16.448C41.9413 16.9493 41.4987 17.3547 40.912 17.664C40.336 17.9627 39.6533 18.112 38.864 18.112ZM45.7843 8.016C45.4536 8.016 45.1763 7.904 44.9523 7.68C44.7283 7.456 44.6163 7.17867 44.6163 6.848C44.6163 6.51733 44.7283 6.24 44.9523 6.016C45.1763 5.792 45.4536 5.68 45.7843 5.68C46.1043 5.68 46.3763 5.792 46.6003 6.016C46.8243 6.24 46.9363 6.51733 46.9363 6.848C46.9363 7.17867 46.8243 7.456 46.6003 7.68C46.3763 7.904 46.1043 8.016 45.7843 8.016ZM46.6803 9.184V18H44.8563V9.184H46.6803ZM52.627 9.04C53.3097 9.04 53.9123 9.17867 54.435 9.456C54.9683 9.72267 55.3843 10.0587 55.683 10.464V9.184H57.523V18.144C57.523 18.9547 57.3523 19.6747 57.011 20.304C56.6697 20.944 56.1737 21.4453 55.523 21.808C54.883 22.1707 54.115 22.352 53.219 22.352C52.0243 22.352 51.0323 22.0693 50.243 21.504C49.4537 20.9493 49.0057 20.192 48.899 19.232H50.707C50.8457 19.6907 51.139 20.0587 51.587 20.336C52.0457 20.624 52.5897 20.768 53.219 20.768C53.955 20.768 54.547 20.544 54.995 20.096C55.4537 19.648 55.683 18.9973 55.683 18.144V16.672C55.3737 17.088 54.9523 17.44 54.419 17.728C53.8963 18.0053 53.299 18.144 52.627 18.144C51.859 18.144 51.155 17.952 50.515 17.568C49.8857 17.1733 49.3843 16.6293 49.011 15.936C48.6483 15.232 48.467 14.4373 48.467 13.552C48.467 12.6667 48.6483 11.8827 49.011 11.2C49.3843 10.5173 49.8857 9.98933 50.515 9.616C51.155 9.232 51.859 9.04 52.627 9.04ZM55.683 13.584C55.683 12.976 55.555 12.448 55.299 12C55.0537 11.552 54.7283 11.2107 54.323 10.976C53.9177 10.7413 53.4803 10.624 53.011 10.624C52.5417 10.624 52.1043 10.7413 51.699 10.976C51.2937 11.2 50.963 11.536 50.707 11.984C50.4617 12.4213 50.339 12.944 50.339 13.552C50.339 14.16 50.4617 14.6933 50.707 15.152C50.963 15.6107 51.2937 15.9627 51.699 16.208C52.115 16.4427 52.5523 16.56 53.011 16.56C53.4803 16.56 53.9177 16.4427 54.323 16.208C54.7283 15.9733 55.0537 15.632 55.299 15.184C55.555 14.7253 55.683 14.192 55.683 13.584ZM64.3668 9.04C65.0601 9.04 65.6788 9.184 66.2228 9.472C66.7774 9.76 67.2094 10.1867 67.5188 10.752C67.8281 11.3173 67.9828 12 67.9828 12.8V18H66.1748V13.072C66.1748 12.2827 65.9774 11.68 65.5828 11.264C65.1881 10.8373 64.6494 10.624 63.9668 10.624C63.2841 10.624 62.7401 10.8373 62.3348 11.264C61.9401 11.68 61.7428 12.2827 61.7428 13.072V18H59.9188V9.184H61.7428V10.192C62.0414 9.82933 62.4201 9.54667 62.8788 9.344C63.3481 9.14133 63.8441 9.04 64.3668 9.04ZM76.2896 6.88V18H74.4656V6.88H76.2896ZM83.1324 9.04C83.8257 9.04 84.4444 9.184 84.9884 9.472C85.543 9.76 85.975 10.1867 86.2844 10.752C86.5937 11.3173 86.7484 12 86.7484 12.8V18H84.9404V13.072C84.9404 12.2827 84.743 11.68 84.3484 11.264C83.9537 10.8373 83.415 10.624 82.7324 10.624C82.0497 10.624 81.5057 10.8373 81.1004 11.264C80.7057 11.68 80.5084 12.2827 80.5084 13.072V18H78.6844V9.184H80.5084V10.192C80.807 9.82933 81.1857 9.54667 81.6444 9.344C82.1137 9.14133 82.6097 9.04 83.1324 9.04Z" fill="white"/>
</svg>
